<?xml version="1.0" encoding="UTF-8" standalone="no"?>
<!-- Uploaded to: SVG Repo, www.svgrepo.com, Generator: SVG Repo Mixer Tools -->

<svg
   width="800"
   height="800"
   viewBox="0 0 64 64"
   aria-hidden="true"
   role="img"
   class="iconify iconify--emojione"
   preserveAspectRatio="xMidYMid"
   version="1.1"
   id="svg22"
   sodipodi:docname="cherry-blossom-svgrepo-com Kopie 2.svg"
   inkscape:version="1.3.2 (091e20e, 2023-11-25)"
   xmlns:inkscape="http://www.inkscape.org/namespaces/inkscape"
   xmlns:sodipodi="http://sodipodi.sourceforge.net/DTD/sodipodi-0.dtd"
   xmlns="http://www.w3.org/2000/svg"
   xmlns:svg="http://www.w3.org/2000/svg">
  <defs
     id="defs22" />
  <sodipodi:namedview
     id="namedview22"
     pagecolor="#505050"
     bordercolor="#eeeeee"
     borderopacity="1"
     inkscape:showpageshadow="0"
     inkscape:pageopacity="0"
     inkscape:pagecheckerboard="0"
     inkscape:deskcolor="#505050"
     inkscape:zoom="0.295"
     inkscape:cx="398.30508"
     inkscape:cy="400"
     inkscape:window-width="1344"
     inkscape:window-height="449"
     inkscape:window-x="0"
     inkscape:window-y="37"
     inkscape:window-maximized="0"
     inkscape:current-layer="svg22" />
  <g
     fill="#ff506e"
     id="g5">
    <path
       d="M 36.1,2 C 35.7,3.9 34,5.4 32,5.4 30,5.4 28.3,3.9 27.9,2 c -3.1,1.7 -5.3,5.6 -5.3,12.3 0,9.3 9.4,20.5 9.4,20.5 0,0 9.4,-11.2 9.4,-20.5 C 41.4,7.6 39.2,3.7 36.1,2"
       id="path1" />
    <path
       d="M 62,24.3 C 60.1,24.7 58.2,23.8 57.3,21.9 56.4,20 56.9,17.8 58.4,16.5 55.6,14.3 51.3,14 45.5,16.9 37.5,21.1 32,34.8 32,34.8 c 0,0 13.7,4 21.7,-0.1 5.8,-2.9 8.2,-6.7 8.3,-10.4"
       id="path2" />
    <path
       d="M 2,24.3 C 3.9,24.7 5.8,23.8 6.7,21.9 7.6,20 7.1,17.8 5.6,16.5 8.4,14.3 12.7,14 18.5,16.9 26.5,21 32,34.7 32,34.7 c 0,0 -13.7,4 -21.7,-0.1 C 4.5,31.8 2.1,28 2,24.3"
       id="path3" />
    <path
       d="m 46.5,61.9 c -0.7,-1.9 -0.1,-4 1.5,-5.2 1.6,-1.2 3.8,-1 5.2,0.3 1.6,-3.3 1.3,-7.8 -2.3,-13.3 C 45.8,36.1 32,32.5 32,32.5 c 0,0 -1.7,14.8 3.4,22.5 3.6,5.5 7.6,7.4 11.1,6.9"
       id="path4" />
    <path
       d="M 17.5,61.9 C 18.2,60 17.6,57.9 16,56.7 14.4,55.5 12.2,55.7 10.8,57 9.2,53.7 9.5,49.2 13.1,43.7 18.2,36.1 32,32.5 32,32.5 32,32.5 33.7,47.3 28.6,55 25,60.5 21,62.4 17.5,61.9"
       id="path5" />
  </g>
</svg>
