<?xml version="1.0" encoding="UTF-8" standalone="no"?>
<!-- Uploaded to: SVG Repo, www.svgrepo.com, Generator: SVG Repo Mixer Tools -->

<svg
   width="800px"
   height="800px"
   viewBox="0 0 64 64"
   aria-hidden="true"
   role="img"
   class="iconify iconify--emojione"
   preserveAspectRatio="xMidYMid meet"
   version="1.1"
   id="svg22"
   sodipodi:docname="cherry-blossom2.svg"
   inkscape:version="1.3.2 (091e20e, 2023-11-25)"
   xmlns:inkscape="http://www.inkscape.org/namespaces/inkscape"
   xmlns:sodipodi="http://sodipodi.sourceforge.net/DTD/sodipodi-0.dtd"
   xmlns="http://www.w3.org/2000/svg"
   xmlns:svg="http://www.w3.org/2000/svg">
  <defs
     id="defs22" />
  <sodipodi:namedview
     id="namedview22"
     pagecolor="#505050"
     bordercolor="#eeeeee"
     borderopacity="1"
     inkscape:showpageshadow="0"
     inkscape:pageopacity="0"
     inkscape:pagecheckerboard="0"
     inkscape:deskcolor="#505050"
     inkscape:zoom="0.295"
     inkscape:cx="398.30508"
     inkscape:cy="400"
     inkscape:window-width="1344"
     inkscape:window-height="449"
     inkscape:window-x="0"
     inkscape:window-y="37"
     inkscape:window-maximized="0"
     inkscape:current-layer="svg22" />
  <g
     fill="#fff0f3"
     id="g10">
    <path
       d="M35.6 5.7c-.4 1.7-1.9 3-3.6 3s-3.2-1.3-3.6-3c-2.7 1.5-4.6 4.9-4.6 10.8c0 8.2 8.3 18 8.3 18s8.3-9.8 8.3-18c-.1-5.9-2-9.3-4.8-10.8"
       id="path6" />
    <path
       d="M58.3 25.3c-1.6.4-3.4-.4-4.1-2.1c-.8-1.7-.3-3.6 1-4.7c-2.5-1.9-6.3-2.2-11.3.3C36.8 22.4 32 34.4 32 34.4s12 3.5 19.1-.1c5-2.5 7.1-5.8 7.2-9"
       id="path7" />
    <path
       d="M5.7 25.3c1.6.4 3.4-.4 4.1-2.1c.8-1.7.3-3.6-1-4.7c2.5-1.9 6.3-2.2 11.3.3c7 3.6 11.9 15.6 11.9 15.6s-12 3.5-19.1-.1c-5-2.5-7.1-5.8-7.2-9"
       id="path8" />
    <path
       d="M44.7 58.3c-.6-1.6-.1-3.6 1.4-4.6s3.3-.9 4.6.3c1.4-2.9 1.1-6.8-2-11.6c-4.6-6.8-16.7-10-16.7-10s-1.5 13 3 19.7c3.2 4.9 6.6 6.6 9.7 6.2"
       id="path9" />
    <path
       d="M19.3 58.3c.6-1.6.1-3.6-1.4-4.6s-3.3-.9-4.6.3c-1.4-2.9-1.1-6.8 2-11.6c4.5-6.7 16.6-9.9 16.6-9.9s1.5 13-3 19.7c-3.1 4.8-6.5 6.5-9.6 6.1"
       id="path10" />
  </g>
</svg>
