<?xml version="1.0" encoding="UTF-8" standalone="no"?>
<!-- Uploaded to: SVG Repo, www.svgrepo.com, Generator: SVG Repo Mixer Tools -->

<svg
   width="800px"
   height="800px"
   viewBox="0 0 64 64"
   aria-hidden="true"
   role="img"
   class="iconify iconify--emojione"
   preserveAspectRatio="xMidYMid meet"
   version="1.1"
   id="svg22"
   sodipodi:docname="cherry-blossom3.svg"
   inkscape:version="1.3.2 (091e20e, 2023-11-25)"
   xmlns:inkscape="http://www.inkscape.org/namespaces/inkscape"
   xmlns:sodipodi="http://sodipodi.sourceforge.net/DTD/sodipodi-0.dtd"
   xmlns="http://www.w3.org/2000/svg"
   xmlns:svg="http://www.w3.org/2000/svg">
  <defs
     id="defs22" />
  <sodipodi:namedview
     id="namedview22"
     pagecolor="#505050"
     bordercolor="#eeeeee"
     borderopacity="1"
     inkscape:showpageshadow="0"
     inkscape:pageopacity="0"
     inkscape:pagecheckerboard="0"
     inkscape:deskcolor="#505050"
     inkscape:zoom="0.295"
     inkscape:cx="398.30508"
     inkscape:cy="400"
     inkscape:window-width="1344"
     inkscape:window-height="449"
     inkscape:window-x="0"
     inkscape:window-y="37"
     inkscape:window-maximized="0"
     inkscape:current-layer="svg22" />
  <g
     fill="#ff506e"
     id="g22">
    <path
       d="M28.7 40.9l-1.2-.6l7.8-17.2l1.2.6z"
       id="path11" />
    <path
       d="M37.5 23.3c0 .9-.6 1.7-1.5 1.7s-1.6-.7-1.7-1.6c0-.9.6-1.7 1.5-1.7s1.6.7 1.7 1.6"
       id="path12" />
    <path
       d="M29.7 40.5c0 .9-.6 1.7-1.5 1.7s-1.6-.7-1.7-1.6c0-.9.6-1.7 1.5-1.7s1.7.7 1.7 1.6"
       id="path13" />
    <path
       d="M23.9 36.4l-.5-1.3l16.7-7.5l.5 1.3z"
       id="path14" />
    <path
       d="M41.9 28.3c-.1.9-.8 1.6-1.7 1.5c-.9-.1-1.5-.9-1.5-1.8c.1-.9.8-1.6 1.7-1.5c.9.1 1.6.9 1.5 1.8"
       id="path15" />
    <path
       d="M25.3 35.9c-.1.9-.8 1.6-1.7 1.5c-.9-.1-1.5-.9-1.5-1.8c.1-.9.8-1.6 1.7-1.5s1.5.9 1.5 1.8"
       id="path16" />
    <path
       d="M39.9 36.7l-16.4-8.1l.6-1.3l16.4 8.1z"
       id="path17" />
    <path
       d="M40.3 37.7c-.9 0-1.6-.7-1.7-1.6c0-.9.6-1.7 1.5-1.7s1.6.7 1.7 1.6c.1.9-.6 1.7-1.5 1.7"
       id="path18" />
    <path
       d="M23.9 29.6c-.9 0-1.6-.7-1.7-1.6c0-.9.6-1.7 1.5-1.7s1.6.7 1.7 1.6c0 .9-.7 1.7-1.5 1.7"
       id="path19" />
    <path
       d="M35 41l-7.2-17.4L29 23l7.2 17.4z"
       id="path20" />
    <path
       d="M35.5 42.4c-.9-.1-1.5-.9-1.5-1.8c.1-.9.8-1.6 1.7-1.5c.9.1 1.5.9 1.5 1.8c-.1.9-.8 1.6-1.7 1.5"
       id="path21" />
    <path
       d="M28.3 24.9c-.9-.1-1.5-.9-1.5-1.8s.8-1.6 1.7-1.5s1.5.9 1.5 1.8c-.1.9-.9 1.6-1.7 1.5"
       id="path22" />
    <ellipse
       cx="32"
       cy="32"
       rx="3.4"
       ry="3.5"
       id="ellipse22" />
  </g>
</svg>
